{"title":"El Chapulin Colorado Animado - 09 - 10 [XHCDC-TDT] [MPEG2-AC3]","uid":12296792,"size":9075487488,"categoryP":"video","categoryS":"hd___tv_shows","magnet":"?xt=urn:btih:13c356e06a6070fa6145208164b11af89a7b555b&amp;dn=El+Chapulin+Colorado+Animado+-+09+-+10+%5BXHCDC-TDT%5D+%5BMPEG2-AC3%5D&amp;tr=udp%3A%2F%2Ftracker.openbittorrent.com%3A80&amp;tr=udp%3A%2F%2Fopen.demonii.com%3A1337&amp;tr=udp%3A%2F%2Ftracker.coppersurfer.tk%3A6969&amp;tr=udp%3A%2F%2Fexodus.desync.com%3A6969","seeders":0,"leechers":0,"uploader":"BanchouLeomon","files":1,"time":1440626698,"description":"General\nID                                       : 20211 (0x4EF3)\nComplete name                            : [USP RAWS] El Chapulin Colorado Animado - 09 - 10 [XHCDC-TDT] [MPEG2-AC3_2.0] [1920x1080].mts\nFormat                                   : BDAV\nFormat/Info                              : Blu-ray Video\nFile size                                : 8.45 GiB\nDuration                                 : 1h 3mn\nOverall bit rate mode                    : Variable\nOverall bit rate                         : 19.2 Mbps\n\nVideo\nID                                       : 49 (0x31)\nMenu ID                                  : 1 (0x1)\nFormat                                   : MPEG Video\nFormat version                           : Version 2\nFormat profile                           : Main@High\nFormat settings, BVOP                    : Yes\nFormat settings, Matrix                  : Custom\nFormat settings, GOP                     : Variable\nFormat settings, picture structure       : Frame\nCodec ID                                 : 2\nDuration                                 : 1h 3mn\nBit rate mode                            : Variable\nBit rate                                 : 17.8 Mbps\nMaximum bit rate                         : 18.2 Mbps\nWidth                                    : 1 920 pixels\nHeight                                   : 1 080 pixels\nDisplay aspect ratio                     : 16:9\nActive Format Description                : Letterbox 16:9 image, with alternative 4:3 center\nFrame rate                               : 29.970 fps\nColor space                              : YUV\nChroma subsampling                       : 4:2:0\nBit depth                                : 8 bits\nScan type                                : Interlaced\nScan order                               : Top Field First\nCompression mode                         : Lossy\nBits/(Pixel*Frame)                       : 0.287\nStream size                              : 7.86 GiB (93%)\n\nAudio #1\nID                                       : 51 (0x33)\nMenu ID                                  : 1 (0x1)\nFormat                                   : AC-3\nFormat/Info                              : Audio Coding 3\nMode extension                           : CM (complete main)\nFormat settings, Endianness              : Big\nCodec ID                                 : 129\nDuration                                 : 1h 3mn\nBit rate mode                            : Constant\nBit rate                                 : 384 Kbps\nChannel(s)                               : 2 channels\nChannel positions                        : Front: L R\nSampling rate                            : 48.0 KHz\nBit depth                                : 16 bits\nCompression mode                         : Lossy\nDelay relative to video                  : -193ms\nStream size                              : 173 MiB (2%)\nLanguage                                 : Spanish\n\nAudio #2\nID                                       : 52 (0x34)\nMenu ID                                  : 1 (0x1)\nFormat                                   : AC-3\nFormat/Info                              : Audio Coding 3\nMode extension                           : CM (complete main)\nFormat settings, Endianness              : Big\nCodec ID                                 : 129\nDuration                                 : 1h 3mn\nBit rate mode                            : Constant\nBit rate                                 : 192 Kbps\nChannel(s)                               : 2 channels\nChannel positions                        : Front: L R\nSampling rate                            : 48.0 KHz\nBit depth                                : 16 bits\nCompression mode                         : Lossy\nDelay relative to video                  : -30ms\nStream size                              : 86.6 MiB (1%)\nLanguage                                 : English","torrent":{"xt":"urn:btih:13c356e06a6070fa6145208164b11af89a7b555b","amp;dn":"El+Chapulin+Colorado+Animado+-+09+-+10+%5BXHCDC-TDT%5D+%5BMPEG2-AC3%5D","amp;tr":["udp%3A%2F%2Ftracker.openbittorrent.com%3A80","udp%3A%2F%2Fopen.demonii.com%3A1337","udp%3A%2F%2Ftracker.coppersurfer.tk%3A6969","udp%3A%2F%2Fexodus.desync.com%3A6969"],"infoHash":"13c356e06a6070fa6145208164b11af89a7b555b","infoHashBuffer":{"type":"Buffer","data":[19,195,86,224,106,96,112,250,97,69,32,129,100,177,26,248,154,123,85,91]},"announce":[],"urlList":[]}}